<?xml version="1.0" encoding="UTF-8"?>
<svg xmlns="http://www.w3.org/2000/svg" xmlns:xlink="http://www.w3.org/1999/xlink" viewBox="0 0 50 50" width="50px" height="50px">
<g id="surface45800304">
<path style=" stroke:none;fill-rule:nonzero;fill:rgb(0%,0%,0%);fill-opacity:1;" d="M 0 25 C 0 11.191406 11.191406 0 25 0 C 38.808594 0 50 11.191406 50 25 C 50 38.808594 38.808594 50 25 50 C 11.191406 50 0 38.808594 0 25 Z M 25 48 C 37.703125 48 48 37.703125 48 25 C 48 12.296875 37.703125 2 25 2 C 12.296875 2 2 12.296875 2 25 C 2 37.703125 12.296875 48 25 48 Z M 25 48 "/>
<path style=" stroke:none;fill-rule:nonzero;fill:rgb(0%,0%,0%);fill-opacity:1;" d="M 19.238281 10.921875 C 14.652344 10.921875 10.921875 14.652344 10.921875 19.238281 L 10.921875 30.761719 C 10.921875 35.347656 14.652344 39.078125 19.238281 39.078125 L 30.761719 39.078125 C 35.347656 39.078125 39.078125 35.347656 39.078125 30.761719 L 39.078125 19.238281 C 39.078125 14.652344 35.347656 10.921875 30.761719 10.921875 Z M 19.238281 12.199219 L 30.761719 12.199219 C 34.65625 12.199219 37.800781 15.34375 37.800781 19.238281 L 37.800781 30.761719 C 37.800781 34.65625 34.65625 37.800781 30.761719 37.800781 L 19.238281 37.800781 C 15.34375 37.800781 12.199219 34.65625 12.199219 30.761719 L 12.199219 19.238281 C 12.199219 15.34375 15.34375 12.199219 19.238281 12.199219 Z M 32.679688 16.039062 C 31.972656 16.039062 31.398438 16.613281 31.398438 17.320312 C 31.398438 18.027344 31.972656 18.601562 32.679688 18.601562 C 33.386719 18.601562 33.960938 18.027344 33.960938 17.320312 C 33.960938 16.613281 33.386719 16.039062 32.679688 16.039062 Z M 25 17.960938 C 21.121094 17.960938 17.960938 21.121094 17.960938 25 C 17.960938 28.878906 21.121094 32.039062 25 32.039062 C 28.878906 32.039062 32.039062 28.878906 32.039062 25 C 32.039062 21.121094 28.878906 17.960938 25 17.960938 Z M 25 19.238281 C 28.1875 19.238281 30.761719 21.8125 30.761719 25 C 30.761719 28.1875 28.1875 30.761719 25 30.761719 C 21.8125 30.761719 19.238281 28.1875 19.238281 25 C 19.238281 21.8125 21.8125 19.238281 25 19.238281 Z M 25 19.238281 "/>
</g>
</svg>
