<?xml version="1.0" encoding="UTF-8"?>
<svg xmlns="http://www.w3.org/2000/svg" xmlns:xlink="http://www.w3.org/1999/xlink" viewBox="0 0 50 50" width="50px" height="50px">
<g id="surface45587158">
<path style=" stroke:none;fill-rule:nonzero;fill:rgb(0%,0%,0%);fill-opacity:1;" d="M 0 25 C 0 11.191406 11.191406 0 25 0 C 38.808594 0 50 11.191406 50 25 C 50 38.808594 38.808594 50 25 50 C 11.191406 50 0 38.808594 0 25 Z M 25 48 C 37.703125 48 48 37.703125 48 25 C 48 12.296875 37.703125 2 25 2 C 12.296875 2 2 12.296875 2 25 C 2 37.703125 12.296875 48 25 48 Z M 25 48 "/>
<path style=" stroke:none;fill-rule:nonzero;fill:rgb(0%,0%,0%);fill-opacity:1;" d="M 29.480469 16.039062 L 32.679688 16.039062 C 33.035156 16.039062 33.320312 15.753906 33.320312 15.398438 L 33.320312 11.089844 C 33.320312 10.753906 33.0625 10.472656 32.726562 10.449219 C 31.710938 10.378906 29.71875 10.28125 28.289062 10.28125 C 24.359375 10.28125 21.800781 12.636719 21.800781 16.914062 L 21.800781 21.160156 L 17.320312 21.160156 C 16.964844 21.160156 16.679688 21.445312 16.679688 21.800781 L 16.679688 26.28125 C 16.679688 26.632812 16.964844 26.921875 17.320312 26.921875 L 21.800781 26.921875 L 21.800781 39.078125 C 21.800781 39.433594 22.085938 39.71875 22.441406 39.71875 L 26.921875 39.71875 C 27.273438 39.71875 27.558594 39.433594 27.558594 39.078125 L 27.558594 26.921875 L 32.183594 26.921875 C 32.507812 26.921875 32.78125 26.675781 32.816406 26.351562 L 33.316406 21.871094 C 33.359375 21.492188 33.0625 21.160156 32.679688 21.160156 L 27.558594 21.160156 L 27.558594 17.960938 C 27.558594 16.898438 28.417969 16.039062 29.480469 16.039062 Z M 29.480469 16.039062 "/>
</g>
</svg>
