<?xml version="1.0" encoding="UTF-8"?>
<svg xmlns="http://www.w3.org/2000/svg" xmlns:xlink="http://www.w3.org/1999/xlink" viewBox="0 0 50 50" width="50px" height="50px">
<g id="surface44505867">
<path style=" stroke:none;fill-rule:nonzero;fill:rgb(0%,0%,0%);fill-opacity:1;" d="M 0 25 C 0 11.191406 11.191406 0 25 0 C 38.808594 0 50 11.191406 50 25 C 50 38.808594 38.808594 50 25 50 C 11.191406 50 0 38.808594 0 25 Z M 25 48 C 37.703125 48 48 37.703125 48 25 C 48 12.296875 37.703125 2 25 2 C 12.296875 2 2 12.296875 2 25 C 2 37.703125 12.296875 48 25 48 Z M 25 48 "/>
<path style=" stroke:none;fill-rule:nonzero;fill:rgb(0%,0%,0%);fill-opacity:1;" d="M 38.960938 17.324219 C 37.929688 17.78125 36.828125 18.085938 35.667969 18.226562 C 36.851562 17.515625 37.761719 16.394531 38.1875 15.058594 C 37.082031 15.714844 35.855469 16.191406 34.550781 16.445312 C 33.507812 15.332031 32.019531 14.640625 30.371094 14.640625 C 27.207031 14.640625 24.640625 17.203125 24.640625 20.367188 C 24.640625 20.8125 24.695312 21.25 24.792969 21.671875 C 20.03125 21.433594 15.8125 19.152344 12.984375 15.683594 C 12.492188 16.535156 12.210938 17.515625 12.210938 18.566406 C 12.210938 20.554688 13.222656 22.304688 14.757812 23.335938 C 13.820312 23.304688 12.9375 23.046875 12.164062 22.617188 C 12.164062 22.640625 12.164062 22.664062 12.164062 22.6875 C 12.164062 25.464844 14.140625 27.777344 16.757812 28.308594 C 16.277344 28.4375 15.769531 28.507812 15.25 28.507812 C 14.878906 28.507812 14.519531 28.472656 14.167969 28.402344 C 14.902344 30.675781 17.015625 32.335938 19.519531 32.382812 C 17.5625 33.917969 15.09375 34.832031 12.40625 34.832031 C 11.945312 34.832031 11.488281 34.804688 11.042969 34.75 C 13.574219 36.378906 16.585938 37.324219 19.824219 37.324219 C 30.359375 37.324219 36.117188 28.597656 36.117188 21.03125 C 36.117188 20.785156 36.113281 20.53125 36.105469 20.289062 C 37.222656 19.480469 38.191406 18.472656 38.960938 17.324219 Z M 38.960938 17.324219 "/>
</g>
</svg>
